<?xml version="1.0" ?><svg xmlns="http://www.w3.org/2000/svg" width="101" height="100" viewBox="0 0 101 100" fill="none"><path d="M10.3962 39.3403L7.16596 46.9295C7.02559 47.2593 7.2676 47.6253 7.62602 47.6253H42.7908C45.3628 47.6253 47.7605 46.8783 49.7785 45.5895L51.9583 48.4145C53.8913 50.9486 54.2957 54.3522 53.0322 57.2782C49.1349 66.3035 50.7872 76.842 57.3184 84.1897C65.9172 83.5819 84.9659 78.5705 92.37 63.3871C89.9043 55.9407 84.6911 51.4382 81.4599 49.2502C79.8372 48.1515 78.6899 46.3674 78.6899 44.4077V42.1313C78.6899 32.1902 70.631 24.1313 60.6899 24.1313H33.3992C23.376 24.1313 14.3217 30.1178 10.3962 39.3403Z" fill="#2D4B5F"/><path d="M52.1984 75.2506C62.7716 73.6484 70.8748 64.5205 70.8748 53.5V40.375C70.8748 35.4044 66.8454 31.375 61.8748 31.375H49.7783V45.5895L51.9581 48.4145C53.8911 50.9486 54.2955 54.3522 53.032 57.2782C50.5352 63.0603 50.3161 69.4633 52.1984 75.2506Z" fill="#FBF0D4"/><path d="M48.5046 24.1313H33.3992C23.376 24.1313 14.3217 30.1178 10.3962 39.3403L7.16596 46.9295C7.02559 47.2593 7.2676 47.6253 7.62602 47.6253H42.7908C49.9705 47.6253 55.7908 41.805 55.7908 34.6253V31.4174C55.7908 27.3934 52.5286 24.1313 48.5046 24.1313Z" fill="#FCBB58"/><path d="M53.5166 41.9729C54.9512 39.8827 55.7907 37.352 55.7907 34.6253V31.375H61.8751C65.5373 31.375 68.6886 33.5623 70.0939 36.7018C66.9162 40.1876 62.3386 42.375 57.2501 42.375C55.9685 42.375 54.7192 42.2362 53.5166 41.9729Z" fill="#FCBB58"/><path d="M7.20062 47.3883C11.7705 44.1341 15.3475 42.3195 17.9855 40.9811C21.7947 39.0487 23.6464 38.1093 23.7035 35.2629C23.7771 31.5911 19.6241 30.4681 15.3716 31.8097C13.3064 33.9582 11.6073 36.4954 10.3962 39.3406L7.16596 46.9298C7.09805 47.0893 7.11964 47.2574 7.20062 47.3883Z" fill="#0F1A2B"/><path d="M7.58176 47.6234L42.7904 47.6252C48.378 47.6252 53.1423 44.1 54.9804 39.1523H39.7888C18.7401 39.0998 11.8837 44.0233 7.35596 47.2747C7.30357 47.3124 7.25149 47.3498 7.19971 47.3869C7.27905 47.516 7.41596 47.6093 7.58176 47.6234Z" fill="#FC6F26"/><path fill-rule="evenodd" clip-rule="evenodd" d="M59.25 36.375C59.25 34.7181 60.5931 33.375 62.25 33.375C63.9069 33.375 65.25 34.7181 65.25 36.375C65.25 38.0319 63.9069 39.375 62.25 39.375C60.5931 39.375 59.25 38.0319 59.25 36.375Z" fill="#0F1A2B"/><path d="M8.09566 38.3612C12.4137 28.2164 22.3734 21.6313 33.3989 21.6313H60.6898C72.0116 21.6313 81.1898 30.8095 81.1898 42.1313V44.4077C81.1898 45.3717 81.7754 46.4448 82.8614 47.1802C86.3402 49.5357 92.0386 54.4337 94.7431 62.6012C95.1771 63.9119 94.4664 65.3263 93.1556 65.7603C91.8449 66.1944 90.4305 65.4837 89.9965 64.1729C87.7696 57.4477 83.0417 53.3406 80.058 51.3203C77.8986 49.8582 76.1898 47.3632 76.1898 44.4077V42.1313C76.1898 33.5709 69.2502 26.6313 60.6898 26.6313H33.3989C24.378 26.6313 16.2292 32.0191 12.6963 40.3194L10.6507 45.1253H42.7905C48.5895 45.1253 53.2905 40.4243 53.2905 34.6253V31.4174C53.2905 30.0367 54.4098 28.9174 55.7905 28.9174C57.1712 28.9174 58.2905 30.0367 58.2905 31.4174V34.6253C58.2905 39.1375 56.3624 43.1993 53.2853 46.032L53.946 46.8982C56.4321 50.1574 56.946 54.5206 55.3273 58.2692C51.8116 66.4109 53.3069 75.9137 59.1869 82.5287C60.1042 83.5606 60.0113 85.1408 58.9793 86.0581C57.9473 86.9754 56.3672 86.8824 55.4499 85.8505C48.2674 77.7702 46.4581 66.196 50.737 56.287C51.6454 54.1835 51.3505 51.7397 49.9705 49.9306L49.0988 48.7878C47.1717 49.6474 45.0369 50.1253 42.7905 50.1253H7.62577C5.47523 50.1253 4.02316 47.9292 4.86541 45.9504L8.09566 38.3612Z" fill="#0F1A2B"/></svg>